<svg class="icon" viewBox="0 0 1024 1024" xmlns="http://www.w3.org/2000/svg" width="200" height="200"><path d="M512 901.747c-13.584 0-26.122-4.18-37.094-13.061-8.882-7.315-225.698-175.02-312.424-311.38-28.735-44.93-68.441-106.057-68.441-192.784 0-144.718 108.147-262.269 240.326-262.269 67.396 0 131.657 30.825 177.633 84.637 45.453-54.335 109.192-84.637 177.11-84.637 132.702 0 240.327 117.551 240.327 262.27 0 85.159-37.094 143.673-67.396 191.216l-1.045 1.567c-86.727 136.36-303.543 304.588-312.425 311.38-10.449 8.359-22.987 13.06-36.571 13.06z" fill="#E5404F"/></svg>